<?xml version="1.0" encoding="UTF-8"?>
<svg xmlns="http://www.w3.org/2000/svg" width="451" height="64" viewBox="0 0 451 64" fill="none">
  <g clip-path="url(#clip0_2342_2499)">
    <path d="M0 1.78516H4.80416V12.0823L13.4509 1.78516H19.3532L9.50496 13.0773L19.7648 25.7411H13.486L4.87244 14.6206H4.80416V25.7411H0V1.78516Z" fill="#005EB8"></path>
    <path d="M21.4629 0.446777H26.0603V4.84033H21.4629V0.446777ZM21.4629 8.06534H26.0603V25.7411H21.4629V8.06534Z" fill="#005EB8"></path>
    <path d="M29.6978 8.06537H34.0553V10.4671H34.1236C35.565 8.44196 37.5213 7.65186 39.9225 7.65186C44.1084 7.65186 45.9282 10.6037 45.9282 14.5855V25.7393H41.3307V16.3005C41.3307 14.1388 41.2956 11.2221 38.3463 11.2221C35.0187 11.2221 34.297 14.8255 34.297 17.0906V25.7393H29.6996V8.06352L29.6978 8.06537Z" fill="#005EB8"></path>
    <path d="M61.3686 23.751H61.3003C59.9271 25.4678 58.0409 26.1527 55.8778 26.1527C50.4572 26.1527 48.4658 21.6908 48.4658 16.8524C48.4658 12.014 50.4554 7.65364 55.8778 7.65364C58.1775 7.65364 59.7887 8.44374 61.1619 10.1255H61.2301V0H65.8276V25.741H61.3667V23.751H61.3686ZM57.1476 22.5843C60.2021 22.5843 61.1969 19.3575 61.1969 16.8524C61.1969 14.3473 60.0305 11.2239 57.0793 11.2239C54.1282 11.2239 53.27 14.4839 53.27 16.8524C53.27 19.2209 54.1282 22.5843 57.1476 22.5843Z" fill="#005EB8"></path>
    <path d="M69.3013 8.06537H73.6588V10.4671H73.7271C75.1685 8.44196 77.1249 7.65186 79.526 7.65186C83.7119 7.65186 85.5317 10.6037 85.5317 14.5855V25.7393H80.9342V16.3005C80.9342 14.1388 80.8992 11.2221 77.9499 11.2221C74.6222 11.2221 73.9006 14.8255 73.9006 17.0906V25.7393H69.3031V8.06352L69.3013 8.06537Z" fill="#005EB8"></path>
    <path d="M103.253 24.7462C101.572 25.6729 99.6505 26.1529 97.1792 26.1529C91.3452 26.1529 87.9492 22.7894 87.9492 16.9892C87.9492 11.8757 90.6604 7.65381 96.1493 7.65381C102.703 7.65381 104.556 12.1507 104.556 18.3276H92.34C92.5467 21.176 94.5362 22.7894 97.384 22.7894C99.6136 22.7894 101.537 21.9661 103.251 21.0043V24.7443H103.253V24.7462ZM100.165 15.1727C100.029 12.9427 98.999 11.0191 96.4262 11.0191C93.8534 11.0191 92.5485 12.8042 92.3436 15.1727H100.165Z" fill="#005EB8"></path>
    <path d="M117.644 11.7723C116.237 11.2923 115.207 11.0173 113.526 11.0173C112.291 11.0173 110.815 11.464 110.815 12.9741C110.815 15.7893 118.81 14.0042 118.81 20.3877C118.81 24.5062 115.139 26.1529 111.398 26.1529C109.648 26.1529 107.864 25.8446 106.182 25.3978L106.457 21.6227C107.899 22.3427 109.409 22.7894 110.987 22.7894C112.153 22.7894 114.006 22.3427 114.006 20.6277C114.006 17.1609 106.011 19.5293 106.011 13.1457C106.011 9.33554 109.338 7.65381 112.943 7.65381C115.104 7.65381 116.512 7.99717 117.952 8.30546L117.644 11.7723Z" fill="#005EB8"></path>
    <path d="M131.774 11.7723C130.367 11.2923 129.337 11.0173 127.656 11.0173C126.421 11.0173 124.945 11.464 124.945 12.9741C124.945 15.7893 132.94 14.0042 132.94 20.3877C132.94 24.5062 129.269 26.1529 125.528 26.1529C123.778 26.1529 121.994 25.8446 120.312 25.3978L120.587 21.6227C122.029 22.3427 123.538 22.7894 125.116 22.7894C126.283 22.7894 128.136 22.3427 128.136 20.6277C128.136 17.1609 120.141 19.5293 120.141 13.1457C120.141 9.33554 123.468 7.65381 127.073 7.65381C129.234 7.65381 130.642 7.99717 132.082 8.30546L131.774 11.7723Z" fill="#005EB8"></path>
    <path d="M136.137 20.936H141.113L137.99 29.5164H133.94L136.137 20.936Z" fill="#005EB8"></path>
    <path d="M153.567 1.78508H158.748C163.895 1.78508 170.037 1.6134 170.037 8.27203C170.037 11.0854 168.149 13.4206 165.097 13.8323V13.9006C166.401 14.004 167.156 15.3072 167.636 16.3724L171.479 25.7429H166.126L163.243 18.2609C162.557 16.4758 161.94 15.7891 159.916 15.7891H158.371V25.7429H153.567V1.78693V1.78508ZM158.371 12.0102H159.949C162.317 12.0102 165.028 11.6669 165.028 8.68185C165.028 5.69682 162.352 5.55837 159.949 5.55837H158.371V12.0102Z" fill="#005EB8"></path>
    <path d="M187.914 24.7462C186.232 25.6729 184.311 26.1529 181.84 26.1529C176.006 26.1529 172.61 22.7894 172.61 16.9892C172.61 11.8757 175.321 7.65381 180.81 7.65381C187.364 7.65381 189.217 12.1507 189.217 18.3276H177.001C177.207 21.176 179.197 22.7894 182.045 22.7894C184.274 22.7894 186.197 21.9661 187.912 21.0043V24.7443H187.914V24.7462ZM184.826 15.1727C184.689 12.9427 183.66 11.0191 181.085 11.0191C178.51 11.0191 177.207 12.8042 177.002 15.1727H184.826Z" fill="#005EB8"></path>
    <path d="M202.887 11.7723C201.481 11.2923 200.451 11.0173 198.77 11.0173C197.535 11.0173 196.059 11.464 196.059 12.9741C196.059 15.7893 204.054 14.0042 204.054 20.3877C204.054 24.5062 200.383 26.1529 196.642 26.1529C194.892 26.1529 193.107 25.8446 191.426 25.3978L191.701 21.6227C193.142 22.3427 194.652 22.7894 196.23 22.7894C197.397 22.7894 199.25 22.3427 199.25 20.6277C199.25 17.1609 191.254 19.5293 191.254 13.1457C191.254 9.33554 194.582 7.65381 198.187 7.65381C200.348 7.65381 201.756 7.99717 203.196 8.30546L202.887 11.7723Z" fill="#005EB8"></path>
    <path d="M207.021 8.06547H211.414V10.5705H211.482C212.512 8.85373 214.262 7.65381 216.973 7.65381C222.394 7.65381 224.385 11.9791 224.385 16.8526C224.385 21.7261 222.396 26.1529 216.87 26.1529C214.913 26.1529 213.3 25.6729 211.689 23.7161H211.621V32.9481H207.023V8.06547H207.021ZM211.654 16.8526C211.654 19.3576 212.649 22.5845 215.703 22.5845C218.758 22.5845 219.581 19.2893 219.581 16.8526C219.581 14.4158 218.758 11.224 215.772 11.224C212.785 11.224 211.654 14.3826 211.654 16.8526Z" fill="#005EB8"></path>
    <path d="M241.911 24.7462C240.23 25.6729 238.309 26.1529 235.837 26.1529C230.003 26.1529 226.607 22.7894 226.607 16.9892C226.607 11.8757 229.319 7.65381 234.808 7.65381C241.361 7.65381 243.214 12.1507 243.214 18.3276H230.998C231.205 21.176 233.194 22.7894 236.042 22.7894C238.272 22.7894 240.195 21.9661 241.909 21.0043V24.7443L241.911 24.7462ZM238.824 15.1727C238.687 12.9427 237.657 11.0191 235.083 11.0191C232.508 11.0191 231.205 12.8042 231 15.1727H238.824Z" fill="#005EB8"></path>
    <path d="M257.846 11.8757C257.023 11.4991 256.13 11.224 254.723 11.224C251.876 11.224 250.058 13.4891 250.058 16.8175C250.058 20.1459 251.602 22.5826 254.827 22.5826C256.13 22.5826 257.571 22.1027 258.361 21.7593L258.568 25.5695C257.23 25.9812 255.857 26.1529 253.97 26.1529C248.171 26.1529 245.255 22.2061 245.255 16.8175C245.255 11.4289 248.275 7.65381 253.799 7.65381C255.652 7.65381 256.99 7.86056 258.26 8.23715L257.848 11.8757H257.846Z" fill="#005EB8"></path>
    <path d="M263.136 11.4288H259.738V8.0653H263.136V4.53015L267.734 3.05518V8.0653H271.816V11.4288H267.734V19.6657C267.734 21.1758 268.145 22.5825 269.895 22.5825C270.718 22.5825 271.508 22.4108 271.988 22.1025L272.124 25.741C271.163 26.0161 270.1 26.1527 268.726 26.1527C265.124 26.1527 263.132 23.9227 263.132 20.4208V11.4288H263.136Z" fill="#005EB8"></path>
    <path d="M275.873 20.936H280.848L277.726 29.5164H273.676L275.873 20.936Z" fill="#005EB8"></path>
    <path d="M294.436 5.56029H287.574V1.78516H306.104V5.56029H299.242V25.7411H294.438V5.56029H294.436Z" fill="#005EB8"></path>
    <path d="M319.917 24.7462C318.235 25.6729 316.314 26.1529 313.843 26.1529C308.009 26.1529 304.613 22.7894 304.613 16.9892C304.613 11.8757 307.324 7.65381 312.813 7.65381C319.367 7.65381 321.22 12.1507 321.22 18.3276H309.004C309.21 21.176 311.2 22.7894 314.048 22.7894C316.277 22.7894 318.2 21.9661 319.915 21.0043V24.7443H319.917V24.7462ZM316.829 15.1727C316.692 12.9427 315.663 11.0191 313.09 11.0191C310.517 11.0191 309.212 12.8042 309.007 15.1727H316.829Z" fill="#005EB8"></path>
    <path d="M324.938 8.99218C326.723 8.16885 329.124 7.65381 331.08 7.65381C336.468 7.65381 338.697 9.88381 338.697 15.1025V17.3676C338.697 19.1527 338.732 20.4911 338.766 21.7944C338.801 23.1328 338.869 24.3678 338.972 25.7412H334.923C334.751 24.8145 334.751 23.6478 334.716 23.0995H334.648C333.585 25.0563 331.285 26.1547 329.192 26.1547C326.07 26.1547 323.015 24.2662 323.015 20.9028C323.015 18.2592 324.285 16.716 326.035 15.8576C327.784 14.9992 330.049 14.8275 331.97 14.8275H334.51C334.51 11.9791 333.24 11.0173 330.529 11.0173C328.572 11.0173 326.618 11.7723 325.073 12.939L324.936 8.99218H324.938ZM330.326 22.7894C331.732 22.7894 332.83 22.171 333.552 21.2111C334.307 20.216 334.512 18.946 334.512 17.5725H332.522C330.462 17.5725 327.41 17.9159 327.41 20.6277C327.41 22.1378 328.679 22.7894 330.326 22.7894Z" fill="#005EB8"></path>
    <path d="M342.592 8.06547H346.881V10.5373H346.949C348.391 8.37561 350.484 7.65381 352.2 7.65381C354.671 7.65381 356.421 8.58052 357.416 10.7773C358.479 8.64882 360.779 7.65381 362.94 7.65381C367.297 7.65381 368.532 10.6388 368.532 14.5875V25.7412H363.935V15.2041C363.935 13.5574 363.935 11.2222 361.292 11.2222C358.237 11.2222 357.861 14.8607 357.861 17.159V25.7394H353.263V15.2022C353.263 13.5556 353.263 11.2203 350.62 11.2203C347.566 11.2203 347.189 14.8589 347.189 17.1572V25.7375H342.592V8.06547Z" fill="#005EB8"></path>
    <path d="M370.097 8.06543H374.969L378.88 21.1427H378.949L382.518 8.06543H387.87L391.713 21.1427H391.781L395.452 8.06543H399.845L394.422 25.7412H389L385.157 12.2522H385.089L381.315 25.7412H376.064L370.093 8.06543H370.097Z" fill="#005EB8"></path>
    <path d="M409.725 7.65381C414.975 7.65381 418.99 11.189 418.99 17.0243C418.99 22.1045 415.592 26.1547 409.725 26.1547C403.857 26.1547 400.495 22.1045 400.495 17.0243C400.495 11.189 404.509 7.65381 409.725 7.65381ZM409.725 22.5845C413.259 22.5845 414.185 19.4259 414.185 16.476C414.185 13.7642 412.744 11.224 409.725 11.224C406.705 11.224 405.299 13.8325 405.299 16.476C405.299 19.3927 406.225 22.5845 409.725 22.5845Z" fill="#005EB8"></path>
    <path d="M422.055 8.06547H426.14V12.0806H426.208C426.413 10.4339 428.301 7.65381 431.045 7.65381C431.492 7.65381 431.972 7.65381 432.452 7.79042V12.4239C432.04 12.184 431.217 12.0455 430.392 12.0455C426.653 12.0455 426.653 16.7141 426.653 19.2524V25.7394H422.055V8.06363V8.06547Z" fill="#005EB8"></path>
    <path d="M434.6 0H439.197V15.1356H439.266L444.756 8.0653H450.177L443.588 15.9589L451 25.741H445.166L439.264 17.1607H439.196V25.741H434.598V0H434.6Z" fill="#005EB8"></path>
    <path d="M0 32.4253H14.1375V36.2004H4.80416V42.104H13.3475V45.8792H4.80416V52.6061H14.2058V56.3812H0V32.4253Z" fill="#330072"></path>
    <path d="M15.2598 38.7056H20.2005L24.5931 51.5761H24.6614L28.9155 38.7056H33.513L26.9942 56.3813H21.8136L15.2598 38.7056Z" fill="#330072"></path>
    <path d="M49.2082 55.3863C47.5268 56.313 45.6055 56.793 43.1343 56.793C37.3002 56.793 33.9043 53.4295 33.9043 47.6293C33.9043 42.5158 36.6155 38.2939 42.1044 38.2939C48.6582 38.2939 50.5112 42.7909 50.5112 48.9677H38.295C38.5017 51.8161 40.4913 53.4295 43.3391 53.4295C45.5686 53.4295 47.4918 52.6062 49.2064 51.6444V55.3863H49.2082ZM46.1205 45.811C45.9839 43.581 44.954 41.6593 42.3794 41.6593C39.8048 41.6593 38.5017 43.4444 38.2969 45.811H46.1205Z" fill="#330072"></path>
    <path d="M52.914 38.7056H56.9965V42.7207H57.0648C57.2715 41.0741 59.1577 38.2939 61.9021 38.2939C62.3488 38.2939 62.8286 38.2939 63.3085 38.4305V43.0641C62.8969 42.8241 62.0738 42.6856 61.2488 42.6856C57.5096 42.6856 57.5096 47.3543 57.5096 49.8925V56.3795H52.9121V38.7038H52.914V38.7056Z" fill="#330072"></path>
    <path d="M73.8469 51.6112H73.9152L78.1693 38.7056H82.8369L76.2148 56.2429C74.7402 60.1564 73.6752 63.9999 68.8711 63.9999C67.7729 63.9999 66.6748 63.8282 65.6117 63.5199L65.9199 60.1214C66.5031 60.3263 67.1546 60.4296 68.2879 60.4296C70.1409 60.4296 71.2722 59.1596 71.2722 57.2729L64.5117 38.7056H69.5909L73.845 51.6112H73.8469Z" fill="#330072"></path>
    <path d="M92.3476 38.2939C97.5984 38.2939 101.613 41.8291 101.613 47.6644C101.613 52.7447 98.2149 56.793 92.3476 56.793C86.4804 56.793 83.1177 52.7428 83.1177 47.6644C83.1177 41.8291 87.1319 38.2939 92.3476 38.2939ZM92.3476 53.2246C95.882 53.2246 96.8085 50.0661 96.8085 47.1161C96.8085 44.4043 95.3671 41.8642 92.3476 41.8642C89.3282 41.8642 87.9218 44.4726 87.9218 47.1161C87.9218 50.0328 88.8483 53.2246 92.3476 53.2246Z" fill="#330072"></path>
    <path d="M103.91 38.7055H108.268V41.1072H108.336C109.777 39.0821 111.734 38.292 114.135 38.292C118.321 38.292 120.141 41.2438 120.141 45.2257V56.3794H115.543V46.9406C115.543 44.7789 115.508 41.8604 112.559 41.8604C109.231 41.8604 108.509 45.4638 108.509 47.7289V56.3775H103.912V38.7055H103.91Z" fill="#330072"></path>
    <path d="M137.744 55.3863C136.063 56.313 134.142 56.793 131.67 56.793C125.836 56.793 122.44 53.4295 122.44 47.6293C122.44 42.5158 125.152 38.2939 130.641 38.2939C137.194 38.2939 139.047 42.7909 139.047 48.9677H126.831C127.038 51.8161 129.027 53.4295 131.875 53.4295C134.105 53.4295 136.028 52.6062 137.742 51.6444V55.3863H137.744ZM134.657 45.811C134.52 43.581 133.49 41.6593 130.917 41.6593C128.345 41.6593 127.04 43.4444 126.835 45.811H134.657Z" fill="#330072"></path>
    <path d="M141.963 51.5762H146.939L143.816 60.1565H139.767L141.963 51.5762Z" fill="#330072"></path>
    <path d="M153.491 32.4253H167.629V36.2004H158.295V42.104H166.839V45.8792H158.295V52.6061H167.697V56.3812H153.491V32.4253Z" fill="#330072"></path>
    <path d="M168.751 38.7056H173.692L178.084 51.5761H178.153L182.407 38.7056H187.004L180.485 56.3813H175.305L168.751 38.7056Z" fill="#330072"></path>
    <path d="M202.699 55.3863C201.018 56.313 199.097 56.793 196.625 56.793C190.791 56.793 187.396 53.4295 187.396 47.6293C187.396 42.5158 190.107 38.2939 195.596 38.2939C202.149 38.2939 204.002 42.7909 204.002 48.9677H191.786C191.993 51.8161 193.983 53.4295 196.83 53.4295C199.06 53.4295 200.983 52.6062 202.698 51.6444V55.3863H202.699ZM199.612 45.811C199.475 43.581 198.445 41.6593 195.872 41.6593C193.3 41.6593 191.995 43.4444 191.79 45.811H199.612Z" fill="#330072"></path>
    <path d="M207.112 38.7056H211.195V42.7207H211.263C211.47 41.0741 213.356 38.2939 216.102 38.2939C216.549 38.2939 217.029 38.2939 217.509 38.4305V43.0641C217.097 42.8241 216.274 42.6856 215.449 42.6856C211.71 42.6856 211.71 47.3543 211.71 49.8925V56.3795H207.112V38.7038V38.7056Z" fill="#330072"></path>
    <path d="M228.045 51.6112H228.113L232.368 38.7056H237.035L230.413 56.2429C228.938 60.1564 227.873 63.9999 223.069 63.9999C221.971 63.9999 220.873 63.8282 219.81 63.5199L220.118 60.1214C220.701 60.3263 221.353 60.4296 222.486 60.4296C224.339 60.4296 225.47 59.1596 225.47 57.2729L218.71 38.7056H223.789L228.043 51.6112H228.045Z" fill="#330072"></path>
    <path d="M256.456 54.3916H256.388C255.015 56.1085 253.129 56.7933 250.966 56.7933C245.545 56.7933 243.554 52.3315 243.554 47.493C243.554 42.6546 245.543 38.2943 250.966 38.2943C253.265 38.2943 254.877 39.0844 256.25 40.7661H256.318V30.6406H260.915V56.3817H256.455V54.3916H256.456ZM252.236 53.225C255.29 53.225 256.285 49.9981 256.285 47.493C256.285 44.988 255.118 41.8645 252.167 41.8645C249.216 41.8645 248.358 45.1246 248.358 47.493C248.358 49.8615 249.216 53.225 252.236 53.225Z" fill="#330072"></path>
    <path d="M265.775 39.6323C267.56 38.809 269.961 38.2939 271.917 38.2939C277.305 38.2939 279.534 40.5239 279.534 45.7408V48.0059C279.534 49.791 279.569 51.1294 279.603 52.4327C279.638 53.7711 279.706 55.0079 279.809 56.3795H275.76C275.588 55.4528 275.588 54.2861 275.553 53.736H275.485C274.422 55.6928 272.122 56.7912 270.029 56.7912C266.907 56.7912 263.852 54.9045 263.852 51.5392C263.852 48.8957 265.122 47.3524 266.871 46.494C268.621 45.6356 270.886 45.4639 272.807 45.4639H275.347C275.347 42.6155 274.077 41.6537 271.366 41.6537C269.409 41.6537 267.455 42.4087 265.91 43.5754L265.773 39.6286V39.6323H265.775ZM271.164 53.4295C272.571 53.4295 273.669 52.8111 274.391 51.8512C275.145 50.8562 275.35 49.5861 275.35 48.2127H273.361C271.301 48.2127 268.248 48.556 268.248 51.2678C268.248 52.7779 269.518 53.4295 271.164 53.4295Z" fill="#330072"></path>
    <path d="M290.15 51.6112H290.218L294.473 38.7056H299.14L292.518 56.2429C291.044 60.1564 289.979 63.9999 285.174 63.9999C284.076 63.9999 282.978 63.8282 281.915 63.5199L282.223 60.1214C282.806 60.3263 283.458 60.4296 284.591 60.4296C286.444 60.4296 287.577 59.1596 287.577 57.2729L280.817 38.7056H285.896L290.15 51.6112Z" fill="#330072"></path>
  </g>
  <defs>
    <clipPath id="clip0_2342_2499">
      <rect width="451" height="64" fill="white"></rect>
    </clipPath>
  </defs>
</svg>
